<?xml version="1.0" encoding="UTF-8"?>
<svg id="a" data-name="图层 1" xmlns="http://www.w3.org/2000/svg" width="115.082" height="129.189" viewBox="0 0 115.082 129.189">
  <path d="M27.318,58.981c1.566-1.678,3.102-1.107,4.77-.355,5.202,2.346,10.613,4.122,16.214,5.12,11.231,2.002,22.398,2.563,32.661-3.745,5.443-3.346,8.876-8.086,7.852-14.824-.928-6.111-5.415-9.171-10.82-10.879-9.616-3.039-19.036-1.59-28.106,2.191-8.037,3.351-15.234,8.186-21.953,13.716-1.248,1.028-2.327,2.324-4.206,1.009-6.372-4.461-12.373-9.301-15.748-16.557-5.274-11.337,.685-24.473,12.72-27.987,5.886-1.719,11.511-1.513,16.17,3.288,1.898,1.957,2.567,3.924,1.226,6.554-1.287,2.524-2.272,5.228-2.376,8.122-.087,2.404,.241,4.773,2.964,5.596,2.725,.824,4.343-1.002,5.582-3.018,2.198-3.575,1.975-7.513,1.235-11.42-.336-1.776-.607-3.364,.488-5.035,5.218-7.959,14.587-9.799,22.152-4.258,.675,.495,1.349,1.116,2.102,.329,.713-.745,.174-1.537-.292-2.183-1.739-2.404-4.042-4.013-7.011-4.416-6.865-.932-12.892,.953-17.783,5.875-1.721,1.732-2.703,2.06-4.352-.122-2.379-3.147-5.762-4.723-9.745-5.178C17.241-.773,2.091,14.334,3.658,28.158c1.069,9.427,6.428,16.107,13.587,21.715,5.779,4.527,5.668,4.488,.765,10.119C6.725,72.953-.513,87.634,.028,105.24c.353,11.484,7.64,25.061,25.373,23.877,11.167-.746,20.919-5.064,29.984-11.263,1.031-.705,2.336-1.47,2.003-3.811-.909,.509-1.516,.762-2.024,1.147-7.062,5.356-15.099,8.684-23.764,9.797-15.46,1.985-26.831-3.612-25.408-21.862,1.349-17.307,9.449-31.636,21.125-44.143Zm5.812-5.533c9.149-7.888,18.496-15.445,30.953-17.431,5.57-.888,11.06-.707,16.128,2.158,3.691,2.087,6.501,4.926,6.628,9.478,.132,4.735-2.614,7.816-6.415,10.035-6.25,3.65-13.113,4.787-20.417,4.54-8.942,.284-17.439-2.262-25.767-5.571-1.55-.616-3.427-1.213-1.11-3.21Z" fill="#fff"/>
  <path d="M114.977,70.735c-.544-3.583-3.175-5.377-6.344-6.378-5.637-1.781-11.16-.932-16.478,1.284-4.712,1.964-8.931,4.799-12.87,8.042-.237,.195-.642,.533-1.161,.994-2.513-.92-5.593-2.116-5.593-2.116,.294,1.108,2.242,2.496,4.035,3.571-.892,.871-1.938,1.954-3.1,3.289-6.616,7.599-10.859,16.206-10.542,26.527,.207,6.733,4.479,14.693,14.876,13.998,6.547-.437,12.264-2.969,17.579-6.603,.605-.413,1.369-.862,1.175-2.234-.533,.298-.889,.447-1.187,.672-4.14,3.14-8.852,5.091-13.932,5.743-9.064,1.164-15.73-2.117-14.896-12.817,.791-10.147,5.539-18.547,12.385-25.88,.918-.984,1.819-.649,2.796-.208,3.05,1.375,6.222,2.416,9.506,3.002,6.584,1.174,13.132,1.503,19.148-2.196,3.191-1.962,5.203-4.741,4.603-8.691Zm-4.919,7.336c-3.664,2.14-7.688,2.806-11.97,2.662-5.242,.167-10.224-1.326-15.106-3.266-.909-.361-2.009-.711-.651-1.882,5.364-4.625,10.844-9.055,18.147-10.22,3.266-.521,6.484-.415,9.455,1.265,2.164,1.224,3.812,2.888,3.886,5.557,.077,2.776-1.532,4.582-3.761,5.884Z" fill="#fff"/>
</svg>